<svg xmlns="http://www.w3.org/2000/svg" viewBox="0 0 512 512" width="512" height="512">
  <rect width="512" height="512" fill="#FBF3DD"/>

  <!-- BOOK : ปกน้ำเงินเข้ม -->
  <g transform="rotate(-10 256 236)">
    <rect x="170" y="140" width="196" height="188" rx="14" fill="#F1ECDE" stroke="#D6CDB8" stroke-width="3"/>
    <path d="M176 300 H360" stroke="#D6CDB8" stroke-width="2"/>
    <rect x="150" y="122" width="196" height="188" rx="14" fill="#213A76" stroke="#152449" stroke-width="5"/>
    <path d="M164 122 h22 v188 h-22 a14 14 0 0 1-14-14 V136 a14 14 0 0 1 14-14 z" fill="#182B5C"/>
    <rect x="206" y="166" width="120" height="9" rx="4.5" fill="#F5C542"/>
    <rect x="206" y="190" width="84" height="6" rx="3" fill="#5C74B0"/>
  </g>

  <!-- PENCIL : ดินสอเหลืองอวบ -->
  <g transform="rotate(-35 256 244)">
    <path d="M150 244 l42 -30 v60 z" fill="#E7B878" stroke="#C9945A" stroke-width="3" stroke-linejoin="round"/>
    <path d="M150 244 l19 -13 v26 z" fill="#3A3A3A"/>
    <rect x="192" y="214" width="150" height="60" rx="9" fill="#F7C948" stroke="#E0A92E" stroke-width="3"/>
    <path d="M192 233 h150 M192 255 h150" stroke="#E9B838" stroke-width="3"/>
    <rect x="342" y="214" width="30" height="60" fill="#C9CDD4" stroke="#A7ADB6" stroke-width="3"/>
    <path d="M351 214 v60 M361 214 v60" stroke="#AEB4BD" stroke-width="2"/>
    <path d="M372 214 h14 a18 18 0 0 1 18 18 v24 a18 18 0 0 1-18 18 h-14 z" fill="#F2A0A8" stroke="#D97F89" stroke-width="3"/>
  </g>

  <!-- ชื่อแอป บรรทัดเดียว -->
  <text x="256" y="466" text-anchor="middle" font-family="'Arial Rounded MT Bold','Helvetica Neue',Arial,sans-serif" font-weight="800" font-size="50" letter-spacing="1.5" fill="#213A76">STUDY VALLEY</text>
</svg>
